<mxfile host="app.diagrams.net" modified="2024-01-03T12:40:22.303Z" agent="Mozilla/5.0 (Windows NT 10.0; Win64; x64) AppleWebKit/537.36 (KHTML, like Gecko) Chrome/120.0.0.0 Safari/537.36" version="22.1.16" etag="hxvOuvBtS-9zTsvRzSZb" type="github">
  <diagram name="PaginÄƒ-1" id="rfivVc2iWE5Ns3co3eqO">
    <mxGraphModel>
      <root>
        <mxCell id="0" />
        <mxCell id="1" parent="0" />
      </root>
    </mxGraphModel>
  </diagram>
</mxfile>
